<?xml version="1.0" encoding="utf-8"?>
<!-- Generator: Adobe Illustrator 23.0.4, SVG Export Plug-In . SVG Version: 6.00 Build 0)  -->
<svg version="1.1" id="Layer_1" xmlns="http://www.w3.org/2000/svg" xmlns:xlink="http://www.w3.org/1999/xlink" x="0px" y="0px"
	 viewBox="0 0 512 512" style="enable-background:new 0 0 512 512;" xml:space="preserve">
<style type="text/css">
	.st0{clip-path:url(#SVGID_2_);}
	.st1{clip-path:url(#SVGID_4_);}
	.st2{clip-path:url(#SVGID_10_);}
	.st3{clip-path:url(#SVGID_12_);fill-rule:evenodd;clip-rule:evenodd;fill:#FFFFFF;}
	.st4{clip-path:url(#SVGID_14_);}
	.st5{clip-path:url(#SVGID_16_);}
	.st6{clip-path:url(#SVGID_22_);}
	.st7{clip-path:url(#SVGID_24_);fill-rule:evenodd;clip-rule:evenodd;fill:#FFFFFF;}
</style>
<g>
	<g>
		<defs>
			<path id="SVGID_1_" d="M145.8,279.5c-4-4.3-10.7-4.4-15-0.4c-4.3,4-4.4,10.7-0.4,15c16.1,17,44.5,27.2,75.4,27.2
				c30.9,0,59.2-10.2,75.3-27.2c4-4.2,3.9-11-0.4-15c-4.2-4-11-3.9-15,0.4c-11.8,12.4-34.5,20.6-59.9,20.6
				C180.3,300.1,157.5,291.9,145.8,279.5z M294.1,146c23.4,0,42.4,19,42.4,42.4v134.3c0,23.4-19,42.4-42.4,42.4H117.4
				c-23.4,0-42.4-19-42.4-42.4V188.4C75,165,94,146,117.4,146H294.1z"/>
		</defs>
		<clipPath id="SVGID_2_">
			<use xlink:href="#SVGID_1_"  style="overflow:visible;"/>
		</clipPath>
		<g class="st0">
			<defs>
				<rect id="SVGID_3_" x="-10" width="512" height="512"/>
			</defs>
			<clipPath id="SVGID_4_">
				<use xlink:href="#SVGID_3_"  style="overflow:visible;"/>
			</clipPath>
			<g class="st1">
				<g>
					<defs>
						<rect id="SVGID_5_" x="-10" width="512" height="512"/>
					</defs>
					<clipPath id="SVGID_6_">
						<use xlink:href="#SVGID_5_"  style="overflow:visible;"/>
					</clipPath>
					<g style="clip-path:url(#SVGID_6_);">
						
							<image style="overflow:visible;" width="2134" height="2134" xlink:href="3D4E5C0EC69D3828.jpg"  transform="matrix(0.24 0 0 0.24 -10.08 -0.16)">
						</image>
					</g>
				</g>
			</g>
		</g>
	</g>
	<g>
		<defs>
			<rect id="SVGID_7_" x="75" y="146" width="262" height="220"/>
		</defs>
		<clipPath id="SVGID_8_">
			<use xlink:href="#SVGID_7_"  style="overflow:visible;"/>
		</clipPath>
		<g style="clip-path:url(#SVGID_8_);">
			
				<image style="overflow:visible;" width="262" height="220" xlink:href="3D4E5C0EC69D3828.png"  transform="matrix(1 0 0 1 75 146)">
			</image>
		</g>
	</g>
	<g>
		<defs>
			<path id="SVGID_9_" d="M145.8,279.5c-4-4.3-10.7-4.4-15-0.4c-4.3,4-4.4,10.7-0.4,15c16.1,17,44.5,27.2,75.4,27.2
				c30.9,0,59.2-10.2,75.3-27.2c4-4.2,3.9-11-0.4-15c-4.2-4-11-3.9-15,0.4c-11.8,12.4-34.5,20.6-59.9,20.6
				C180.3,300.1,157.5,291.9,145.8,279.5z M294.1,146c23.4,0,42.4,19,42.4,42.4v134.3c0,23.4-19,42.4-42.4,42.4H117.4
				c-23.4,0-42.4-19-42.4-42.4V188.4C75,165,94,146,117.4,146H294.1z"/>
		</defs>
		<clipPath id="SVGID_10_">
			<use xlink:href="#SVGID_9_"  style="overflow:visible;"/>
		</clipPath>
		<g class="st2">
			<defs>
				<rect id="SVGID_11_" x="72" y="144" width="267.5" height="225.1"/>
			</defs>
			<clipPath id="SVGID_12_">
				<use xlink:href="#SVGID_11_"  style="overflow:visible;"/>
			</clipPath>
			<path class="st3" d="M-389.3,279.5c-4-4.3-10.7-4.4-15-0.4c-4.3,4-4.4,10.7-0.4,15c16.1,17,44.5,27.2,75.4,27.2
				c30.9,0,59.2-10.2,75.3-27.2c4-4.2,3.9-11-0.4-15c-4.2-4-11-3.9-15,0.4c-11.8,12.4-34.5,20.6-59.9,20.6
				C-354.8,300.1-377.5,291.9-389.3,279.5z M-240.9,146c23.4,0,42.4,19,42.4,42.4v134.3c0,23.4-19,42.4-42.4,42.4h-176.7
				c-23.4,0-42.4-19-42.4-42.4V188.4c0-23.4,19-42.4,42.4-42.4H-240.9z M-463.1,143h267.5v225.1h-267.5V143z"/>
		</g>
	</g>
	<g>
		<defs>
			<path id="SVGID_13_" d="M411.4,320.2l-48.2-15.8c-7.9-2.6-13.2-9.9-13.2-18.2v-61.9c0-8.2,5.2-15.4,12.9-18.1l48.2-16.6
				c12.4-4.3,25.4,4.9,25.4,18.1v94.3C436.5,315.1,423.8,324.3,411.4,320.2"/>
		</defs>
		<clipPath id="SVGID_14_">
			<use xlink:href="#SVGID_13_"  style="overflow:visible;"/>
		</clipPath>
		<g class="st4">
			<defs>
				<rect id="SVGID_15_" x="-10" width="512" height="512"/>
			</defs>
			<clipPath id="SVGID_16_">
				<use xlink:href="#SVGID_15_"  style="overflow:visible;"/>
			</clipPath>
			<g class="st5">
				<g>
					<defs>
						<rect id="SVGID_17_" x="-10" width="512" height="512"/>
					</defs>
					<clipPath id="SVGID_18_">
						<use xlink:href="#SVGID_17_"  style="overflow:visible;"/>
					</clipPath>
					<g style="clip-path:url(#SVGID_18_);">
						
							<image style="overflow:visible;" width="2134" height="2134" xlink:href="3D4E5C0EC69D382F.jpg"  transform="matrix(0.24 0 0 0.24 -10.08 -0.16)">
						</image>
					</g>
				</g>
			</g>
		</g>
	</g>
	<g>
		<defs>
			<rect id="SVGID_19_" x="350" y="188" width="87" height="134"/>
		</defs>
		<clipPath id="SVGID_20_">
			<use xlink:href="#SVGID_19_"  style="overflow:visible;"/>
		</clipPath>
		<g style="clip-path:url(#SVGID_20_);">
			
				<image style="overflow:visible;" width="87" height="134" xlink:href="3D4E5C0EC69D3829.png"  transform="matrix(1 0 0 1 350 188)">
			</image>
		</g>
	</g>
	<g>
		<defs>
			<path id="SVGID_21_" d="M411.4,320.2l-48.2-15.8c-7.9-2.6-13.2-9.9-13.2-18.2v-61.9c0-8.2,5.2-15.4,12.9-18.1l48.2-16.6
				c12.4-4.3,25.4,4.9,25.4,18.1v94.3C436.5,315.1,423.8,324.3,411.4,320.2"/>
		</defs>
		<clipPath id="SVGID_22_">
			<use xlink:href="#SVGID_21_"  style="overflow:visible;"/>
		</clipPath>
		<g class="st6">
			<defs>
				<rect id="SVGID_23_" x="347" y="186.6" width="92.4" height="138.6"/>
			</defs>
			<clipPath id="SVGID_24_">
				<use xlink:href="#SVGID_23_"  style="overflow:visible;"/>
			</clipPath>
			<path class="st7" d="M226.5,320.2l-48.2-15.8c-7.9-2.6-13.2-9.9-13.2-18.2v-61.9c0-8.2,5.2-15.4,12.9-18.1l48.2-16.6
				c12.4-4.3,25.4,4.9,25.4,18.1v94.3C251.6,315.1,238.9,324.3,226.5,320.2 M162.2,185.6h92.4v138.6h-92.4V185.6z"/>
		</g>
	</g>
</g>
</svg>
